<svg aria-hidden="true" style="position: absolute; width: 0; height: 0; overflow: hidden;" version="1.1" xmlns="http://www.w3.org/2000/svg" xmlns:xlink="http://www.w3.org/1999/xlink">
<defs>
<symbol id="icon-sad" viewBox="0 0 32 32">
<path d="M20.667 14.667q0.833 0 1.417-0.583t0.583-1.417-0.583-1.417-1.417-0.583-1.417 0.583-0.583 1.417 0.583 1.417 1.417 0.583zM11.333 14.667q0.833 0 1.417-0.583t0.583-1.417-0.583-1.417-1.417-0.583-1.417 0.583-0.583 1.417 0.583 1.417 1.417 0.583zM16 18q-2.267 0-4.117 1.283t-2.683 3.383h2.2q0.733-1.233 1.95-1.95t2.65-0.717 2.65 0.717 1.95 1.95h2.2q-0.833-2.1-2.683-3.383t-4.117-1.283zM16 29.333q-2.767 0-5.2-1.050t-4.233-2.85-2.85-4.233-1.050-5.2 1.050-5.2 2.85-4.233 4.233-2.85 5.2-1.050 5.2 1.050 4.233 2.85 2.85 4.233 1.050 5.2-1.050 5.2-2.85 4.233-4.233 2.85-5.2 1.050zM16 26.667q4.467 0 7.567-3.1t3.1-7.567-3.1-7.567-7.567-3.1-7.567 3.1-3.1 7.567 3.1 7.567 7.567 3.1z"></path>
</symbol>
<symbol id="icon-neutral" viewBox="0 0 32 32">
<path d="M20.667 14.667q0.833 0 1.417-0.583t0.583-1.417-0.583-1.417-1.417-0.583-1.417 0.583-0.583 1.417 0.583 1.417 1.417 0.583zM11.333 14.667q0.833 0 1.417-0.583t0.583-1.417-0.583-1.417-1.417-0.583-1.417 0.583-0.583 1.417 0.583 1.417 1.417 0.583zM12 20.667h8v-2h-8v2zM16 29.333q-2.767 0-5.2-1.050t-4.233-2.85-2.85-4.233-1.050-5.2 1.050-5.2 2.85-4.233 4.233-2.85 5.2-1.050 5.2 1.050 4.233 2.85 2.85 4.233 1.050 5.2-1.050 5.2-2.85 4.233-4.233 2.85-5.2 1.050zM16 26.667q4.467 0 7.567-3.1t3.1-7.567-3.1-7.567-7.567-3.1-7.567 3.1-3.1 7.567 3.1 7.567 7.567 3.1z"></path>
</symbol>
<symbol id="icon-satisfied" viewBox="0 0 32 32">
<path d="M20.667 14.667q0.833 0 1.417-0.583t0.583-1.417-0.583-1.417-1.417-0.583-1.417 0.583-0.583 1.417 0.583 1.417 1.417 0.583zM11.333 14.667q0.833 0 1.417-0.583t0.583-1.417-0.583-1.417-1.417-0.583-1.417 0.583-0.583 1.417 0.583 1.417 1.417 0.583zM16 23.333q2.267 0 4.117-1.283t2.683-3.383h-2.2q-0.733 1.233-1.95 1.95t-2.65 0.717-2.65-0.717-1.95-1.95h-2.2q0.833 2.1 2.683 3.383t4.117 1.283zM16 29.333q-2.767 0-5.2-1.050t-4.233-2.85-2.85-4.233-1.050-5.2 1.050-5.2 2.85-4.233 4.233-2.85 5.2-1.050 5.2 1.050 4.233 2.85 2.85 4.233 1.050 5.2-1.050 5.2-2.85 4.233-4.233 2.85-5.2 1.050zM16 26.667q4.467 0 7.567-3.1t3.1-7.567-3.1-7.567-7.567-3.1-7.567 3.1-3.1 7.567 3.1 7.567 7.567 3.1z"></path>
</symbol>
</defs>
</svg>
